<?xml version="1.0" encoding="utf-8"?>
<!-- Generator: Adobe Illustrator 26.5.0, SVG Export Plug-In . SVG Version: 6.00 Build 0)  -->
<svg version="1.1" id="Слой_3" xmlns="http://www.w3.org/2000/svg" xmlns:xlink="http://www.w3.org/1999/xlink" x="0px" y="0px"
	 viewBox="0 0 21 20" style="enable-background:new 0 0 21 20;" xml:space="preserve">
<style type="text/css">
	.st0{fill:#EA2A2A;}
</style>
<path class="st0" d="M8.24,18.37c9.28-1.14,12.56-5.64,8.93-12.92c-2.22,3.47-4.94,8.46-6.58,10.28c-0.24,0.38-3.45-3.93-4.79-6.54
	c0.57-1.37,2.8,2.7,4.92,3.04c1.47-2.31,3.13-4.79,4.65-7.36c1.35-2.27,2.41-1.98,3.72,0.05c2.78,4.32,2.53,9.79-2.39,13.08
	c-1.67,1.11-3.65,1.71-5.65,1.8c-1.34,0.06-2.34-0.09-3.02-0.43C8.13,18.86,8.13,18.88,8.24,18.37z"/>
<path class="st0" d="M9.33,18.21C8.89,18.59,8.44,18.97,8,19.35c0.89-0.09,1.45,0.13,0,0c-2.72-1.02-4.35-1.79-6.05-4.33
	c-0.99-1.47-1.54-3.21-1.6-4.98C0.34,9.8,0.34,9.57,0.34,9.34C0.36,7.93,0.82,6.57,1.6,5.4c1.57-2.35,3.29-4.42,6.48-4.86
	c1.25,1.43,3.38-0.02,4.62,1.42C5.1,2.07,1.43,5.24,2.16,11.07C2.68,15.17,5.96,16.82,9.33,18.21z"/>
<path class="st0" d="M11.71,1.95c-1.25-1.43-3.63,0.24-4.87-1.19c2.49-0.44,5.18-0.87,7.32,0.91C14.27,2.37,12.55,2.21,11.71,1.95z"
	/>
</svg>
