<?xml version="1.0" encoding="utf-8"?>
<!-- Generator: Adobe Illustrator 26.5.0, SVG Export Plug-In . SVG Version: 6.00 Build 0)  -->
<svg version="1.1" xmlns="http://www.w3.org/2000/svg" xmlns:xlink="http://www.w3.org/1999/xlink" x="0px" y="0px"
	 viewBox="0 0 21 20" style="enable-background:new 0 0 21 20;" xml:space="preserve">
<style type="text/css">
	.st0{fill:#3FB5CB;}
	.st1{fill:#49B8CE;}
	.st2{fill:#3AB3CA;}
</style>
<g id="Слой_1">
</g>
<g id="Слой_2">
	<path class="st0" d="M8.4,18.61c9.28-1.14,12.56-5.64,8.93-12.92c-2.22,3.47-4.94,8.46-6.58,10.28c-0.24,0.38-3.45-3.93-4.79-6.54
		c0.57-1.37,2.8,2.7,4.92,3.04c1.47-2.31,3.13-4.79,4.65-7.36c1.35-2.27,2.41-1.98,3.72,0.05c2.78,4.32,2.53,9.79-2.39,13.08
		c-1.67,1.11-3.65,1.71-5.65,1.8c-1.34,0.06-2.34-0.09-3.02-0.43C8.29,19.1,8.29,19.12,8.4,18.61z"/>
	<path class="st1" d="M9.49,18.45c-0.44,0.38-0.89,0.76-1.33,1.14c0.89-0.09,1.45,0.13,0,0c-2.72-1.02-4.35-1.79-6.05-4.33
		c-0.99-1.47-1.54-3.21-1.6-4.98C0.5,10.04,0.5,9.81,0.5,9.58c0.02-1.41,0.48-2.77,1.26-3.94c1.57-2.35,3.29-4.42,6.48-4.86
		c1.25,1.43,3.38-0.02,4.62,1.42C5.26,2.31,1.59,5.48,2.32,11.31C2.84,15.41,6.12,17.06,9.49,18.45z"/>
	<path class="st2" d="M11.87,2.19C10.62,0.76,8.24,2.43,7,1c2.49-0.44,5.18-0.87,7.32,0.91C14.43,2.61,12.71,2.45,11.87,2.19z"/>
</g>
</svg>
